<svg width="24" height="24" viewBox="0 0 24 24" fill="none" xmlns="http://www.w3.org/2000/svg">
<path d="M5.6 13.6C5.6 9.18172 9.18172 5.6 13.6 5.6C15.3572 5.6 16.9821 6.16654 18.302 7.12694C17.0511 4.34057 14.2522 2.4 11 2.4C6.58172 2.4 3 5.98172 3 10.4C3 13.0611 4.29926 15.4187 6.29803 16.8731C5.8495 15.874 5.6 14.7661 5.6 13.6Z" fill="#46587E"/>
<path d="M13.6 5.6C9.18172 5.6 5.6 9.18172 5.6 13.6C5.6 14.7661 5.8495 15.874 6.29803 16.8731C7.6179 17.8335 9.24279 18.4 11 18.4C15.4183 18.4 19 14.8183 19 10.4C19 9.23388 18.7505 8.12604 18.302 7.12694C16.9821 6.16654 15.3572 5.6 13.6 5.6Z" fill="#7B93C1"/>
<path fill-rule="evenodd" clip-rule="evenodd" d="M24 12C24 18.6274 18.6274 24 12 24C5.37258 24 0 18.6274 0 12C0 5.37258 5.37258 0 12 0C18.6274 0 24 5.37258 24 12ZM21.6 13.6C21.6 18.0183 18.0183 21.6 13.6 21.6C10.3478 21.6 7.54892 19.6594 6.29803 16.8731C4.29926 15.4187 3 13.0611 3 10.4C3 5.98172 6.58172 2.4 11 2.4C14.2522 2.4 17.0511 4.34057 18.302 7.12694C20.3007 8.58133 21.6 10.9389 21.6 13.6Z" fill="#34C186"/>
</svg>
