<svg width="114" height="19" viewBox="0 0 114 19" fill="none" xmlns="http://www.w3.org/2000/svg">
<path d="M7.39209 15.2838C9.56976 15.2838 11.4478 14.5246 12.7264 13.0861L11.4278 11.8275C10.3489 12.9663 9.03034 13.5057 7.49198 13.5057C4.33536 13.5057 1.99786 11.2281 1.99786 8.13143C1.99786 5.03474 4.33536 2.75718 7.49198 2.75718C9.03034 2.75718 10.3489 3.27662 11.4278 4.4154L12.7264 3.15675C11.4478 1.71829 9.56976 0.979079 7.41207 0.979079C3.15662 0.979079 0 3.99585 0 8.13143C0 12.267 3.15662 15.2838 7.39209 15.2838Z" fill="#46587E"/>
<path d="M14.8972 15.124H16.8151V0.299805H14.8972V15.124Z" fill="#46587E"/>
<path d="M24.6127 15.2438C27.7893 15.2438 30.1069 12.9862 30.1069 9.82961C30.1069 6.67299 27.7893 4.43538 24.6127 4.43538C21.4361 4.43538 19.0986 6.67299 19.0986 9.82961C19.0986 12.9862 21.4361 15.2438 24.6127 15.2438ZM24.6127 13.5656C22.5749 13.5656 21.0366 12.0872 21.0366 9.82961C21.0366 7.57203 22.5749 6.11359 24.6127 6.11359C26.6506 6.11359 28.1689 7.57203 28.1689 9.82961C28.1689 12.0872 26.6506 13.5656 24.6127 13.5656Z" fill="#46587E"/>
<path d="M40.3112 4.53527V10.0094C40.3112 12.287 39.0326 13.5257 37.0348 13.5257C35.2167 13.5257 34.1778 12.4868 34.1778 10.409V4.53527H32.2599V10.6288C32.2599 13.7454 34.0779 15.2438 36.815 15.2438C38.3134 15.2438 39.632 14.6245 40.4111 13.5257V15.124H42.2292V4.53527H40.3112Z" fill="#46587E"/>
<path d="M53.5522 0.299805V6.13357C52.6732 4.99478 51.3546 4.43538 49.8562 4.43538C46.7595 4.43538 44.5019 6.59307 44.5019 9.82961C44.5019 13.0662 46.7595 15.2438 49.8562 15.2438C51.4145 15.2438 52.7731 14.6445 53.6322 13.4457V15.124H55.4702V0.299805H53.5522ZM50.016 13.5656C47.9782 13.5656 46.4398 12.0872 46.4398 9.82961C46.4398 7.57203 47.9782 6.11359 50.016 6.11359C52.0339 6.11359 53.5722 7.57203 53.5722 9.82961C53.5722 12.0872 52.0339 13.5656 50.016 13.5656Z" fill="#46587E"/>
<path d="M63.3146 15.2438C65.2126 15.2438 66.7909 14.4447 67.63 12.9663L66.1716 12.0472C65.4923 13.0861 64.4534 13.5656 63.2946 13.5656C61.2169 13.5656 59.6585 12.1272 59.6585 9.82961C59.6585 7.57203 61.2169 6.11359 63.2946 6.11359C64.4534 6.11359 65.4923 6.59307 66.1716 7.63196L67.63 6.69297C66.7909 5.21455 65.2126 4.43538 63.3146 4.43538C60.0581 4.43538 57.7206 6.67299 57.7206 9.82961C57.7206 12.9862 60.0581 15.2438 63.3146 15.2438Z" fill="#46587E"/>
<path d="M69.577 15.124H71.4949V0.299805H69.577V15.124Z" fill="#46587E"/>
<path d="M82.232 4.29553V5.23453C81.4928 4.47534 80.4739 4.11572 79.2153 4.11572C76.2784 4.11572 73.9009 6.25344 73.9009 9.68976C73.9009 13.1461 76.2784 15.3038 79.2153 15.3038C80.6337 15.3038 81.6926 14.9042 82.4118 14.0451V15.124H86.028V4.29553H82.232ZM80.0144 12.287C78.7358 12.287 77.7368 11.348 77.7368 9.68976C77.7368 8.05152 78.7358 7.1325 80.0144 7.1325C81.293 7.1325 82.292 8.05152 82.292 9.68976C82.292 11.348 81.293 12.287 80.0144 12.287Z" fill="#34C186"/>
<path d="M94.8847 4.11572C93.4663 4.11572 92.4074 4.5153 91.6882 5.37438V4.29553H88.072V18.9998H91.868V14.165C92.6072 14.9242 93.6261 15.3038 94.8847 15.3038C97.8216 15.3038 100.199 13.1461 100.199 9.70974C100.199 6.27342 97.8216 4.11572 94.8847 4.11572ZM94.0856 12.287C92.807 12.287 91.808 11.348 91.808 9.70974C91.808 8.07149 92.807 7.1325 94.0856 7.1325C95.3642 7.1325 96.3632 8.07149 96.3632 9.70974C96.3632 11.348 95.3642 12.287 94.0856 12.287Z" fill="#34C186"/>
<path d="M108.377 4.11572C106.958 4.11572 105.899 4.5153 105.18 5.37438V4.29553H101.564V18.9998H105.36V14.165C106.099 14.9242 107.118 15.3038 108.377 15.3038C111.313 15.3038 113.691 13.1461 113.691 9.70974C113.691 6.27342 111.313 4.11572 108.377 4.11572ZM107.577 12.287C106.299 12.287 105.3 11.348 105.3 9.70974C105.3 8.07149 106.299 7.1325 107.577 7.1325C108.856 7.1325 109.855 8.07149 109.855 9.70974C109.855 11.348 108.856 12.287 107.577 12.287Z" fill="#34C186"/>
</svg>
