<svg width="53" height="8" viewBox="0 0 53 8" fill="none" xmlns="http://www.w3.org/2000/svg">
<path d="M3.31899 7.59844C5.22835 7.59844 6.37797 6.48844 6.37797 4.44844V0.498437H5.0984V4.39844C5.0984 5.83844 4.45861 6.45844 3.32898 6.45844C2.19936 6.45844 1.54957 5.83844 1.54957 4.39844V0.498437H0.25V4.44844C0.25 6.48844 1.39962 7.59844 3.31899 7.59844Z" fill="#46587E"/>
<path d="M13.9561 3.85844C14.4959 3.56844 14.8558 3.03844 14.8558 2.31844C14.8558 1.20844 13.9561 0.498437 12.2766 0.498437H8.99773V7.49844H12.4766C14.276 7.49844 15.2157 6.79844 15.2157 5.59844C15.2157 4.68844 14.7058 4.09844 13.9561 3.85844ZM12.1367 1.51844C13.0364 1.51844 13.5462 1.83844 13.5462 2.48844C13.5462 3.12844 13.0364 3.44844 12.1367 3.44844H10.2973V1.51844H12.1367ZM12.3966 6.47844H10.2973V4.45844H12.3966C13.3763 4.45844 13.9061 4.76844 13.9061 5.46844C13.9061 6.16844 13.3763 6.47844 12.3966 6.47844Z" fill="#46587E"/>
<path d="M17.4024 7.49844H18.7019V0.498437H17.4024V7.49844Z" fill="#46587E"/>
<path d="M33.6183 7.59844C35.5277 7.59844 36.6773 6.48844 36.6773 4.44844V0.498437H35.3978V4.39844C35.3978 5.83844 34.758 6.45844 33.6283 6.45844C32.4987 6.45844 31.8489 5.83844 31.8489 4.39844V0.498437H30.5494V4.44844C30.5494 6.48844 31.699 7.59844 33.6183 7.59844Z" fill="#46587E"/>
<path d="M44.2555 3.85844C44.7953 3.56844 45.1552 3.03844 45.1552 2.31844C45.1552 1.20844 44.2555 0.498437 42.576 0.498437H39.2971V7.49844H42.7759C44.5753 7.49844 45.515 6.79844 45.515 5.59844C45.515 4.68844 45.0052 4.09844 44.2555 3.85844ZM42.4361 1.51844C43.3358 1.51844 43.8456 1.83844 43.8456 2.48844C43.8456 3.12844 43.3358 3.44844 42.4361 3.44844H40.5967V1.51844H42.4361ZM42.696 6.47844H40.5967V4.45844H42.696C43.6756 4.45844 44.2055 4.76844 44.2055 5.46844C44.2055 6.16844 43.6756 6.47844 42.696 6.47844Z" fill="#46587E"/>
<path d="M49.0013 6.40844V4.47844H52.3802V3.40844H49.0013V1.58844H52.81V0.498437H47.7017V7.49844H52.95V6.40844H49.0013Z" fill="#46587E"/>
<path d="M25.9007 6.15323L26.6005 7.1295C26.7496 7.04903 26.8915 6.95906 27.0255 6.86026L26.3123 5.86646C26.1868 5.97596 26.0491 6.07206 25.9007 6.15323Z" fill="#34C186"/>
<path fill-rule="evenodd" clip-rule="evenodd" d="M27.5126 6.42465L26.7468 5.35758L26.3778 4.84331H25.578H24.9618L25.9007 6.15323C26.0491 6.07206 26.1868 5.97596 26.3123 5.86646L27.0255 6.86026C26.8915 6.95906 26.7496 7.04903 26.6005 7.1295L26.8971 7.54331H27.5157H28.3154L27.5126 6.42465Z" fill="#34C186"/>
<path d="M28.4321 3.99844C28.4321 1.91844 26.8326 0.398438 24.6633 0.398438C22.4941 0.398438 20.8946 1.92844 20.8946 3.99844C20.8946 6.06844 22.4941 7.59844 24.6633 7.59844C25.1358 7.59844 25.5812 7.52634 25.989 7.39205L25.2714 6.39094C25.0784 6.43523 24.8749 6.45844 24.6633 6.45844C23.2538 6.45844 22.2041 5.42844 22.2041 3.99844C22.2041 2.56844 23.2538 1.53844 24.6633 1.53844C26.0729 1.53844 27.1225 2.56844 27.1225 3.99844C27.1225 4.51308 26.9866 4.97592 26.7468 5.35758L27.5126 6.42465C28.0919 5.79778 28.4321 4.95766 28.4321 3.99844Z" fill="#46587E"/>
</svg>
