<svg width="1080" height="1080" viewBox="0 0 1080 1080" fill="none" xmlns="http://www.w3.org/2000/svg">
<path d="M252 612C252 413.177 413.177 252 612 252C691.075 252 764.195 277.494 823.589 320.712C767.298 195.326 641.347 108 495 108C296.177 108 135 269.177 135 468C135 587.748 193.467 693.84 283.411 759.288C263.227 714.328 252 664.475 252 612Z" fill="#46587E"/>
<path d="M612 252C413.177 252 252 413.177 252 612C252 664.475 263.227 714.328 283.411 759.288C342.805 802.505 415.925 828 495 828C693.823 828 855 666.823 855 468C855 415.525 843.772 365.672 823.589 320.712C764.195 277.494 691.075 252 612 252Z" fill="#7B93C1"/>
<path fill-rule="evenodd" clip-rule="evenodd" d="M1080 540C1080 838.234 838.234 1080 540 1080C241.766 1080 0 838.234 0 540C0 241.766 241.766 0 540 0C838.234 0 1080 241.766 1080 540ZM972 612C972 810.823 810.823 972 612 972C465.653 972 339.702 884.674 283.411 759.288C193.467 693.84 135 587.748 135 468C135 269.177 296.177 108 495 108C641.347 108 767.298 195.326 823.589 320.712C913.533 386.16 972 492.252 972 612Z" fill="#34C186"/>
</svg>
