<svg width="20" height="10" viewBox="0 0 20 10" fill="none" xmlns="http://www.w3.org/2000/svg">
<path d="M10 0C4.79004 0 0.78125 4.58984 0.78125 4.58984L0.410156 5L0.78125 5.41016C0.78125 5.41016 4.43603 9.57764 9.29688 9.96094C9.52881 9.99023 9.76074 10 10 10C10.2393 10 10.4712 9.99023 10.7031 9.96094C15.564 9.57764 19.2188 5.41016 19.2188 5.41016L19.5898 5L19.2188 4.58984C19.2188 4.58984 15.21 0 10 0ZM10 1.25C11.377 1.25 12.6465 1.62598 13.75 2.12891C14.1479 2.78809 14.375 3.54736 14.375 4.375C14.375 6.6333 12.6807 8.48877 10.4883 8.73047C10.4761 8.73291 10.4614 8.72803 10.4492 8.73047C10.3003 8.73779 10.1514 8.75 10 8.75C9.83398 8.75 9.67285 8.74023 9.51172 8.73047C7.31934 8.48877 5.625 6.6333 5.625 4.375C5.625 3.55957 5.84473 2.80029 6.23047 2.14844H6.21094C7.32422 1.63574 8.6084 1.25 10 1.25ZM10 2.5C8.96484 2.5 8.125 3.33984 8.125 4.375C8.125 5.41016 8.96484 6.25 10 6.25C11.0352 6.25 11.875 5.41016 11.875 4.375C11.875 3.33984 11.0352 2.5 10 2.5ZM4.53125 3.08594C4.43359 3.50586 4.375 3.92822 4.375 4.375C4.375 5.47119 4.6875 6.49658 5.23438 7.36328C3.65967 6.45264 2.56592 5.36621 2.20703 5C2.50732 4.69238 3.34473 3.87695 4.53125 3.08594ZM15.4688 3.08594C16.6553 3.87695 17.4927 4.69238 17.793 5C17.4341 5.36621 16.3403 6.45264 14.7656 7.36328C15.3125 6.49658 15.625 5.47119 15.625 4.375C15.625 3.92822 15.5664 3.50098 15.4688 3.08594Z" fill="#384052"/>
</svg>
